<?xml version="1.0" encoding="utf-8"?>
<!-- Generator: Adobe Illustrator 19.2.1, SVG Export Plug-In . SVG Version: 6.00 Build 0)  -->
<svg version="1.1" id="layer" xmlns="http://www.w3.org/2000/svg" xmlns:xlink="http://www.w3.org/1999/xlink" x="0px" y="0px"
	 viewBox="0 0 652 652" style="enable-background:new 0 0 652 652;" xml:space="preserve">
<path d="M595.2,411.2c-4.3,0-8.6,0-12.9,0c0.3-0.6,0.6-1.2,0.9-1.8c2.1-4.2,4.3-5.6,9.1-5.6c2.2,0,4.4,0,6.6,0
	C597.6,406.3,596.4,408.8,595.2,411.2z M581.3,439.8c3.9-7.9,7.9-15.8,11.8-23.8c-4.3,0-8.6,0-12.9,0c-3.4,6.8-6.8,13.7-10.2,20.5
	c-1.1,2.3-2.7,3.3-5.4,3.3c-10.4,0-20.8,0-31.2,0c4.2-8.5,8.4-16.9,12.6-25.4c1.8-3.6,2.5-3.8,6.6-3.8c1.2,0,2.5,0,3.7,0
	c3.6,0,5.4-1,6.8-3.9c0.6-1.2,1.2-2.3,1.7-3.5c-4.4,0-8.9,0-13.3,0c1.9-3.8,3.8-7.7,5.7-11.5c-2.8,0-5.6,0-8.4,0
	c-3.7,0-5.4,1-6.8,3.8c-1.3,2.6-2.5,5.1-3.8,7.7c-2.3,0-4.7,0-7,0c-1.2,2.5-2.4,4.9-3.7,7.4c2.3,0,4.7,0,7,0
	c-1.4,2.9-11.5,23.1-12.9,26c-1.1,2.3-2.7,3.2-5.4,3.2c-9.2,0-18.5,0-27.7,0c4.9-9,9.8-18,14.8-27c-3.4,0-6.8,0-10.2,0
	c-2.4,0-3.4,0.8-4.9,2.6c0-1.9-0.7-2.6-2.6-2.6c-2.4,0-4.7,0-7.1,0c-11.6,0-18.1,3.6-23.1,12.8c-2,3.7-4,7.3-6,11
	c-1.3,2.3-2.8,3.2-5.4,3.2c-6,0-11.9,0-17.9,0c-6.5,0-9-0.9-9.7-4.3c-0.8-3.7,0.9-6.6,9.5-12.4c1.6-1.1,3.3-2.2,4.9-3.3
	c2.3-1.5,3.2-2.3,2.9-3.9c-0.3-1.5-1.2-3.1-8.2-3.1c-11.2,0-22.4,0-33.6,0c-3.6,0-5.2,0.9-6.8,3.9c-3.6,6.6-7.3,13.3-10.9,19.9
	c-1.2,2.3-2.8,3.2-5.4,3.2c-18,0-36,0-54,0c0.8-2.3,1.5-4.5,2.3-6.8c9,0,18,0,26.9,0c5.3,0,7.5-1.4,9.4-5.9c0.9-2,1.7-4,2.6-6.1
	c0.6-1.5,1.2-3.7,0.1-5.3c-1.3-1.9-4.5-2.9-9.4-2.9c-8.6,0-17.3,0-25.9,0c-8.3,0-12,2.3-15,9.1c-1.8,4.2-3.6,8.4-5.4,12.7
	c-1.8,4.3-4.7,5.2-8.8,5.2c-6.2,0-12.3,0-18.5,0c0.4-0.6,0.8-1.2,1.2-1.7c3.7-5.5,3-11.6-1.9-16.8c-4.8-5.1-11.2-6.9-16.8-8.4
	c-4.8,0-9.6,0-14.4,0c-3.3,6-6.6,12.1-9.9,18.1c-4.1,7.5-8.6,8.9-16.5,8.9c-5.8,0-11.6,0-17.4,0c4.9-9,9.8-18,14.8-27
	c-3.4,0-6.8,0-10.2,0c-2.4,0-3.4,0.8-4.9,2.6c0-1.9-0.7-2.6-2.6-2.6c-2.3,0-4.7,0-7,0c-11.6,0-18.1,3.6-23.1,12.8c-2,3.7-4,7.3-6,11
	c-1.3,2.3-2.8,3.2-5.4,3.2c-8.8,0-17.7,0-26.5,0c7.5-13.7,15-27.4,22.5-41.2c1.3-2.4-0.4-5.3-3.2-5.3c-35.1,0-70.3,0-105.4,0
	c-7.2,0-10.7,1.8-14.1,7.6c15.2,0,30.4,0,45.6,0c-8.5,15.5-16.9,31-25.4,46.4c4.4,0,8.7,0,13.1,0c8.5-15.5,16.9-31,25.4-46.4
	c6.1,0,12.2,0,18.2,0c-8.5,15.5-16.9,30.9-25.4,46.4c4.4,0,8.7,0,13.1,0c8.5-15.5,16.9-30.9,25.4-46.4c6.1,0,12.2,0,18.3,0
	c-7,12.8-14,25.5-21,38.3c-1,1.8-1.9,4.2-0.9,5.9c0.8,1.4,3,2.2,6.2,2.2c11.5,0,23,0,34.6,0c1.7,0,2.4-0.6,3.5-1.8
	c0,1.4,1.2,1.8,2.5,1.8c19.8,0,39.6,0,59.5,0c11.8,0,18.1-3.4,23.1-12.7c2.6-4.8,5.2-9.5,7.8-14.3c0.1,0,0.7,0.1,0.8,0.2
	c9.4,1.8,14.1,5.3,14.5,10.6c0.2,2.2-0.5,4.2-2,5.8c-1.7,1.9-4.4,3-7.4,3c-6,0-8.4,2.3-10.7,7.5c16.8,0,33.6,0,50.3,0
	c1.7,0,2.4-0.6,3.5-1.8c0,1.4,1.2,1.8,2.5,1.8c24.8,0,49.6,0,74.5,0c5,0,7.2-1.3,9.7-5.9c2.9-5.3,5.8-10.6,8.7-15.9
	c2-3.6,4.5-5.1,8.8-5.1c4.4,0,8.7,0,13.1,0c-2.2,1.5-4.7,3.5-6.6,5.4c-2.5,2.6-4.9,6.1-5.3,10.7c-0.3,3.2,0.5,5.9,2.3,7.9
	c1.7,1.9,4.3,2.9,7.4,2.9c10.2,0,20.4,0,30.6,0c1.7,0,2.4-0.6,3.5-1.8c0,1.4,1.2,1.8,2.5,1.8c21.5,0,42.9,0,64.4,0
	c1.7,0,2.4-0.6,3.5-1.8c0,1.4,1.2,1.8,2.5,1.8c31.7,0,63.5,0,95.2,0c5.7,0,8.6-1.9,9.7-6.2c0.1-0.4,0.2-0.9,0.3-1.3
	C611.3,439.8,596.3,439.8,581.3,439.8z M320.4,423.8c1.3-3.7,4.3-4,7-4c4.9,0,9.8,0,14.7,0c-0.3,1-0.7,2-1,3
	c-1.2,3.5-3.9,3.8-6.3,3.8c-5.1,0-10.2,0-15.3,0C319.8,425.7,320.1,424.8,320.4,423.8z M187,434.8c-2,3.7-4.4,5.1-8.8,5.1
	c-2.4,0-4.8,0-7.3,0c2.6-4.8,5.2-9.6,7.8-14.3c2-3.6,4.5-5.1,8.8-5.1c2.4,0,4.8,0,7.2,0C192.2,425.2,189.6,430,187,434.8z
	 M478.1,434.8c-2,3.7-4.4,5.1-8.8,5.1c-2.4,0-4.8,0-7.3,0c2.6-4.8,5.2-9.6,7.8-14.3c2-3.6,4.5-5.1,8.8-5.1c2.4,0,4.8,0,7.2,0
	C483.3,425.2,480.7,430,478.1,434.8z M314.5,364.5c0-2.2,0-4.4,0-6.6c5.6,0,11.3,0,16.9,0h0c5.6,0,11.3,0,16.9,0c0,2.2,0,4.4,0,6.6
	c-5.6,0-11.3,0-16.9,0h0C325.8,364.5,320.2,364.5,314.5,364.5z M331.4,378.2c3.5,0,7.1,0,10.6,0c0-3.4,0-6.8,0-10.2
	c-3.5,0-7.1,0-10.6,0h0c-3.5,0-7.1,0-10.6,0c0,3.4,0,6.8,0,10.2C324.3,378.2,327.9,378.2,331.4,378.2 M320.8,354.5
	c0-5.7-1.5-11.2-6-14.9c5.6,0,11.1,0,16.7,0h0c5.6,0,11.1,0,16.7,0c-4.5,3.8-6,9.3-6,14.9c-3.5,0-7.1,0-10.6,0h0
	C327.9,354.5,324.3,354.5,320.8,354.5z M292.6,328.7c0-1.6,0-3.2,0-4.9c12.9,0,25.9,0,38.8,0h0c12.9,0,25.9,0,38.8,0
	c0,1.6,0,3.2,0,4.9c-12.9,0-25.9,0-38.8,0h0C318.5,328.7,305.5,328.7,292.6,328.7z M296,346.3c4.5-1,9.4-3.5,12.7-6.7
	c-4.5,0-9,0-13.5,0C295.5,341.8,295.8,344,296,346.3z M366.8,346.3c-4.5-1-9.4-3.5-12.7-6.7c4.5,0,9,0,13.5,0
	C367.3,341.8,367.1,344,366.8,346.3z M291.3,313.2c-4.3-25.2-12.5-51.5-21.5-68.7c9.7,5.3,20.1,13.6,31.3,25.1
	c-4.6-1.2-9.3-2.2-13.9-2.9c6.5,15.3,11.8,30.9,16.6,46.6C299.6,313.2,295.4,313.2,291.3,313.2z M371.6,313.2
	c4.3-25.2,12.5-51.5,21.5-68.7c-9.7,5.3-20.1,13.6-31.3,25.1c4.6-1.2,9.3-2.2,13.9-2.9c-6.5,15.3-11.8,30.9-16.6,46.6
	C363.2,313.2,367.4,313.2,371.6,313.2z M288.4,321.3c0-1.6,0-3.3,0-4.9c14.3,0,28.6,0,43,0h0c14.3,0,28.6,0,43,0c0,1.6,0,3.3,0,4.9
	c-14.3,0-28.6,0-43,0h0C317.1,321.3,302.8,321.3,288.4,321.3z M316.9,241.8c6.6-11.4,12.3-24.4,14.5-37.8
	c2.2,13.4,7.8,26.4,14.5,37.8c-2.4-1.1-4.9-2.2-7.6-3.4c-2.4-1.1-3.4-0.4-3.3,2c0.8,24.2,4.4,51.8,17,72.8c-5,0-9.9,0-14.9,0
	c-2.3-5.6-4.2-11.1-5.6-16.5c-1.4,5.4-3.3,11-5.6,16.5c-5,0-9.9,0-14.9,0c12.7-21,16.2-48.6,17-72.8c0.1-2.5-0.9-3.1-3.3-2
	C321.8,239.6,319.3,240.7,316.9,241.8z M288.4,336.2c0-1.6,0-3.3,0-4.9c14.3,0,28.6,0,43,0h0c14.3,0,28.6,0,43,0c0,1.6,0,3.3,0,4.9
	c-14.3,0-28.6,0-43,0h0C317.1,336.2,302.8,336.2,288.4,336.2z"/>
</svg>
